<?xml version="1.0" standalone="no"?>
<!DOCTYPE svg PUBLIC "-//W3C//DTD SVG 20010904//EN"
 "http://www.w3.org/TR/2001/REC-SVG-20010904/DTD/svg10.dtd">
<svg version="1.0" xmlns="http://www.w3.org/2000/svg"
 width="1181.000000pt" height="1181.000000pt" viewBox="0 0 1181.000000 1181.000000"
 preserveAspectRatio="xMidYMid meet">
<metadata>
Created by potrace 1.14, written by Peter Selinger 2001-2017
</metadata>
<g transform="translate(0.000000,1181.000000) scale(0.100000,-0.100000)"
fill="#000000" stroke="none">
<path d="M4855 8323 c-855 -41 -1562 -174 -2380 -448 -283 -94 -660 -241 -858
-334 l-108 -51 -662 0 -662 0 85 -83 c47 -45 147 -141 222 -212 76 -71 138
-133 138 -137 0 -5 -24 -43 -53 -86 -127 -186 -163 -419 -101 -657 2 -5 16
-44 32 -85 58 -150 181 -326 329 -473 l79 -77 414 -1 c228 0 456 0 506 1 l91
0 -34 100 c-23 67 -38 135 -46 209 l-11 110 -241 3 c-226 3 -242 4 -275 25
-105 65 -97 219 14 272 39 20 60 21 307 21 l264 1 43 77 c76 139 205 258 349
325 l48 22 -217 5 c-200 5 -219 7 -245 26 -38 28 -53 60 -53 116 0 75 33 100
231 175 912 345 1773 532 2698 584 269 15 870 7 1111 -15 518 -48 932 -123
1420 -260 204 -57 520 -169 509 -180 -2 -2 -32 -25 -67 -50 -66 -49 -102 -96
-102 -133 0 -34 54 -88 112 -113 224 -96 627 -130 1568 -130 714 0 949 -17
1255 -90 360 -86 597 -218 725 -405 25 -37 46 -85 41 -94 -2 -2 3 -7 9 -11 24
-15 50 -141 50 -240 0 -124 -39 -281 -96 -391 -8 -17 -14 -33 -11 -35 8 -8
122 122 179 202 132 189 181 318 181 479 0 83 -5 111 -26 167 -72 188 -267
361 -547 488 -530 238 -1301 387 -2370 455 -129 8 -265 15 -302 15 l-68 0 0
36 c0 20 -11 54 -25 79 -114 193 -505 367 -1220 540 -236 57 -807 164 -1070
200 -359 49 -849 73 -1160 58z"/>
<path d="M4971 7626 c2 -2 87 -12 189 -20 198 -18 491 -57 605 -82 39 -8 114
-24 168 -34 373 -73 882 -245 1236 -419 141 -69 197 -67 248 8 41 60 25 130
-36 160 -95 48 -488 158 -803 225 -367 79 -858 138 -1288 156 -271 11 -325 12
-319 6z"/>
<path d="M3020 6846 c0 -2 51 -29 113 -59 161 -77 323 -204 423 -329 l30 -38
313 0 c172 -1 315 1 317 2 3 4 -43 86 -171 307 l-70 121 -477 0 c-263 0 -478
-2 -478 -4z"/>
<path d="M4240 6839 c0 -6 53 -103 118 -215 l117 -204 318 0 318 0 -25 43
c-14 23 -69 119 -124 212 l-99 170 -311 3 c-226 2 -312 -1 -312 -9z"/>
<path d="M5120 6844 c0 -4 43 -82 96 -173 53 -91 107 -185 121 -208 l24 -43
170 0 170 0 -25 43 c-14 23 -69 119 -123 212 l-99 170 -167 3 c-92 1 -167 -1
-167 -4z"/>
<path d="M2520 6614 c-111 -33 -177 -73 -257 -158 -294 -311 -171 -846 258
-1119 84 -54 248 -117 302 -117 16 0 12 9 -25 53 -215 253 -275 561 -157 800
37 76 49 92 114 158 68 68 189 135 282 154 37 8 108 15 157 15 l89 0 -24 26
c-37 40 -165 120 -243 153 -159 66 -346 79 -496 35z"/>
<path d="M9370 6615 c-47 -15 -105 -38 -130 -52 -74 -43 -191 -169 -228 -246
-103 -210 -75 -480 73 -702 124 -187 298 -316 505 -376 104 -30 107 -27 47 46
-69 83 -142 212 -168 295 -95 305 6 601 251 738 110 62 160 75 297 76 68 1
123 3 123 6 -1 16 -149 118 -225 155 -123 60 -188 76 -335 81 -113 4 -133 2
-210 -21z"/>
<path d="M4873 6102 c-13 -2 -23 -5 -23 -7 0 -7 223 -390 235 -403 9 -10 104
-12 431 -12 230 -1 425 0 431 0 16 0 13 19 -7 42 -9 10 -63 99 -120 198 -104
179 -105 180 -140 180 -249 3 -790 4 -807 2z"/>
<path d="M5991 6100 c-19 -5 -11 -22 88 -195 60 -104 115 -198 123 -208 12
-16 36 -18 292 -18 153 0 280 2 283 5 2 2 -42 85 -100 183 -57 98 -111 191
-119 207 l-15 29 -266 1 c-146 0 -275 -1 -286 -4z"/>
<path d="M6838 6102 c-21 -2 -38 -5 -38 -8 0 -4 227 -401 236 -413 4 -5 326
-2 331 3 2 2 -50 97 -116 211 l-120 207 -128 2 c-70 0 -145 0 -165 -2z"/>
<path d="M3765 6083 c29 -74 48 -188 49 -290 l1 -113 155 0 c604 -2 853 -1
858 5 4 3 1 14 -5 23 -7 9 -34 55 -61 102 -27 47 -76 131 -108 187 l-59 103
-419 0 c-394 0 -418 -1 -411 -17z"/>
<path d="M10610 5096 c-5 -5 -10 -7 -10 -3 0 4 -18 -4 -40 -18 -22 -14 -44
-25 -49 -25 -5 0 -11 -8 -15 -17 -3 -10 -15 -33 -26 -51 -20 -33 -33 -122 -18
-122 4 0 7 -3 6 -7 -3 -12 36 -93 44 -93 3 0 14 -8 24 -17 9 -10 24 -18 33
-20 8 -1 17 -6 19 -12 2 -5 10 -7 18 -4 8 3 14 1 14 -3 0 -5 23 -9 50 -9 28 0
50 4 50 9 0 4 7 6 15 2 8 -3 15 -1 15 4 0 6 9 10 20 10 11 0 20 5 20 10 0 6 5
10 11 10 34 0 87 113 82 175 -5 60 -6 65 -14 65 -4 0 -10 8 -14 19 -8 25 -40
61 -54 61 -6 0 -11 4 -11 9 0 21 -152 45 -170 27z m100 -47 c0 -5 6 -6 13 -4
18 7 88 -58 90 -83 1 -12 5 -22 9 -22 8 0 5 -54 -6 -100 -6 -25 -66 -85 -88
-88 -67 -9 -88 -10 -120 -1 -21 5 -38 14 -38 20 0 6 -4 8 -9 4 -6 -3 -15 5
-22 17 -7 12 -18 29 -26 36 -7 7 -13 19 -14 25 0 7 -2 21 -4 32 -11 54 38 134
96 159 32 13 119 17 119 5z"/>
<path d="M10589 5006 c-4 -46 -3 -176 1 -195 7 -28 39 -38 41 -13 1 10 2 29 3
44 0 14 4 29 8 33 8 9 50 -4 44 -13 -2 -4 3 -23 13 -42 17 -38 54 -55 48 -23
-9 46 -21 79 -31 85 -7 5 -3 14 11 27 12 11 20 26 19 33 -6 34 -18 57 -34 63
-28 12 -122 12 -123 1z m108 -59 c1 -15 -1 -28 -5 -28 -46 -8 -57 -3 -58 26
-2 41 2 44 33 36 21 -5 28 -14 30 -34z"/>
<path d="M2497 4784 c-4 -4 -7 -229 -7 -501 l0 -493 90 0 90 0 -2 498 -3 497
-80 3 c-45 1 -84 0 -88 -4z"/>
<path d="M5093 4783 c-10 -4 -13 -113 -13 -499 l0 -494 95 0 95 0 0 484 c0
266 -3 491 -6 500 -5 13 -22 16 -83 15 -42 0 -82 -3 -88 -6z"/>
<path d="M8479 4723 c-13 -16 -12 -17 4 -4 9 7 17 15 17 17 0 8 -8 3 -21 -13z"/>
<path d="M8555 4728 c-11 -7 -29 -13 -40 -14 -11 -2 -33 -6 -50 -9 -16 -4 -37
-8 -45 -9 -8 0 -17 -4 -20 -8 -3 -4 -16 -9 -29 -11 -15 -2 -29 -17 -42 -46
-15 -34 -23 -42 -36 -36 -15 5 -16 4 -5 -6 17 -18 15 -32 -4 -25 -10 4 -13 2
-7 -6 13 -22 11 -52 -4 -77 -8 -13 -10 -20 -4 -17 7 5 11 -3 11 -21 0 -22 -2
-25 -10 -13 -6 9 -10 10 -10 3 0 -6 5 -15 10 -18 8 -5 7 -12 -2 -23 -7 -9 -8
-13 -3 -10 13 8 14 -211 1 -231 -6 -10 -5 -12 2 -7 8 5 12 -2 12 -21 0 -22 -2
-25 -10 -13 -6 9 -10 10 -10 3 0 -6 5 -15 10 -18 8 -5 7 -12 -2 -23 -7 -9 -8
-13 -2 -9 17 10 11 -63 -7 -74 -12 -8 -12 -9 1 -7 9 2 17 -1 19 -7 2 -5 8 -19
14 -30 8 -17 8 -18 -4 -10 -8 6 -7 3 3 -7 13 -12 15 -18 6 -21 -8 -3 -5 -6 6
-6 12 -1 16 -6 12 -17 -3 -8 -2 -12 4 -9 6 3 10 0 10 -8 0 -8 8 -21 17 -28 14
-12 15 -12 9 -1 -7 11 -4 12 13 3 11 -7 21 -19 21 -29 0 -12 3 -13 8 -5 6 10
15 10 40 1 18 -7 32 -16 32 -20 0 -4 5 -8 11 -8 5 0 8 4 5 9 -3 5 6 9 19 9 14
0 25 -5 25 -10 0 -5 6 -6 13 -1 18 12 107 11 107 -1 0 -7 3 -8 8 -1 9 12 72
15 72 3 0 -4 5 -8 11 -8 5 0 7 5 4 10 -4 6 5 10 20 10 18 0 24 -4 19 -12 -5
-9 -2 -9 9 1 14 11 17 11 17 0 0 -9 3 -10 8 -4 9 12 72 15 72 3 0 -4 5 -8 11
-8 5 0 7 5 4 10 -3 6 0 10 9 10 8 0 16 -6 19 -12 3 -10 7 -10 20 1 13 10 17
10 17 1 0 -8 4 -9 13 -3 6 5 37 9 68 9 45 -1 56 2 54 14 -1 8 5 21 14 28 15
11 15 12 0 6 -22 -7 -20 38 1 48 13 6 12 7 -2 7 -11 1 -15 8 -13 26 2 21 -2
25 -22 25 -13 0 -22 4 -18 9 3 5 1 13 -5 16 -6 4 -9 1 -8 -6 2 -7 -5 -15 -16
-17 -13 -3 -16 0 -11 9 6 8 4 10 -5 4 -21 -13 -98 -18 -80 -6 8 6 10 11 4 11
-6 0 -14 -3 -18 -7 -4 -4 -19 -9 -34 -10 -18 -2 -23 -1 -14 5 11 8 11 10 -2
15 -9 4 -15 1 -13 -5 1 -6 -11 -12 -28 -15 -20 -2 -26 -1 -16 6 8 5 9 11 3 15
-5 3 -13 -1 -16 -10 -6 -15 -9 -14 -34 2 -25 16 -26 16 -13 0 13 -15 12 -17
-14 -12 -16 3 -33 11 -38 18 -7 10 -8 9 -4 -2 4 -13 -4 -16 -39 -16 -39 -1
-43 1 -32 15 12 14 11 14 -4 2 -24 -18 -93 -27 -83 -11 6 9 2 9 -16 0 -19 -11
-24 -10 -36 6 -7 10 -13 15 -13 11 0 -4 -10 -2 -22 4 -21 11 -21 12 -2 27 14
11 15 13 2 9 -16 -6 -28 10 -28 40 0 10 6 13 18 9 15 -6 15 -5 -1 8 -12 9 -15
16 -7 21 8 5 8 10 0 20 -8 10 -8 15 0 20 7 4 8 11 1 18 -14 18 -14 29 1 38 10
7 10 9 1 9 -7 0 -13 5 -13 11 0 5 6 7 13 3 10 -6 10 -4 0 7 -18 19 -16 32 5
25 16 -6 16 -5 0 8 -18 13 -26 42 -9 32 8 -5 8 22 1 32 -7 8 -4 28 5 34 6 5 6
8 -2 8 -7 0 -13 5 -13 11 0 5 6 7 13 3 10 -6 10 -4 0 7 -18 19 -16 32 5 25 16
-6 16 -5 0 8 -18 13 -26 42 -9 31 5 -3 13 0 17 6 4 7 3 9 -4 5 -6 -3 -13 -2
-17 4 -3 5 0 10 7 10 9 0 9 3 -2 10 -13 9 -10 15 15 36 17 15 24 23 16 19 -8
-5 -12 -4 -8 1 7 12 67 11 86 -1 9 -5 12 -4 8 2 -8 13 52 11 73 -2 9 -5 11 -4
6 3 -5 8 1 12 16 12 18 0 20 -2 8 -10 -8 -5 -10 -10 -4 -10 6 0 14 3 18 7 12
13 48 14 40 1 -4 -6 -3 -8 4 -4 5 3 12 3 15 -1 2 -5 3 -3 1 3 -1 7 13 10 39 9
59 -4 59 -4 51 -17 -4 -7 -3 -8 5 -4 6 4 9 11 6 16 -6 10 57 6 75 -5 8 -5 11
-4 7 2 -4 6 14 9 46 8 35 -2 51 -6 49 -14 -1 -7 2 -10 8 -6 6 3 8 11 5 16 -4
5 8 7 27 5 40 -4 60 2 51 17 -3 5 3 17 13 25 15 12 16 14 2 9 -13 -5 -16 0
-16 23 1 19 5 27 12 23 7 -4 7 -2 -1 8 -12 14 -13 19 -13 43 0 7 -9 16 -21 19
-12 3 -18 10 -14 16 4 7 0 8 -10 4 -12 -4 -13 -8 -5 -13 7 -4 -8 -7 -33 -6
-25 0 -44 3 -42 7 2 3 -2 6 -10 6 -8 0 -12 -5 -8 -10 3 -5 -4 -4 -16 2 -11 7
-21 8 -21 4 0 -4 -14 -9 -30 -10 -21 -2 -28 1 -24 9 4 7 3 8 -5 4 -22 -14 -60
-16 -67 -5 -4 7 -3 9 4 5 6 -3 13 -2 16 3 4 5 -2 8 -11 6 -10 -1 -17 -7 -16
-13 1 -5 -9 -9 -22 -9 -14 0 -22 4 -19 9 4 6 -3 5 -14 -1 -27 -14 -54 -15 -32
-1 9 6 10 10 3 10 -6 0 -15 -5 -18 -10 -4 -7 -13 -6 -27 1 -15 8 -19 8 -14 0
4 -6 0 -11 -9 -11 -10 0 -13 5 -9 12 5 7 3 8 -5 4 -7 -5 -27 -10 -44 -13 -31
-4 -31 -4 -12 11 24 18 18 20 -10 4z"/>
<path d="M6119 4701 l-29 -29 0 -441 0 -441 90 0 90 0 0 53 c1 28 0 138 0 242
0 105 2 194 6 198 6 5 200 -323 264 -447 20 -38 55 -60 96 -60 56 0 58 3 245
334 l104 185 3 -253 2 -252 95 0 96 0 -3 446 -3 446 -28 24 c-36 31 -87 32
-121 2 -13 -13 -106 -165 -205 -338 -99 -173 -183 -316 -188 -317 -4 -2 -23
25 -42 60 -18 34 -64 114 -101 177 -37 63 -107 183 -155 266 -57 100 -96 156
-112 163 -40 18 -73 13 -104 -18z"/>
<path d="M1666 4705 c-57 -20 -87 -45 -121 -100 l-30 -48 -3 -286 c-2 -197 1
-299 9 -328 14 -53 90 -127 145 -142 24 -7 163 -11 367 -11 l328 0 -3 88 -3
87 -323 5 c-272 4 -324 7 -332 20 -6 8 -10 123 -10 261 0 196 3 249 14 265 14
18 32 19 333 24 l318 5 3 88 3 87 -328 0 c-255 -1 -337 -4 -367 -15z"/>
<path d="M8301 4614 c0 -11 3 -14 6 -6 3 7 2 16 -1 19 -3 4 -6 -2 -5 -13z"/>
<path d="M8955 4530 c-3 -5 -1 -10 4 -10 6 0 11 5 11 10 0 6 -2 10 -4 10 -3 0
-8 -4 -11 -10z"/>
<path d="M9456 4502 c-3 -5 -24 -8 -46 -7 -22 1 -38 0 -35 -3 2 -3 -3 -11 -13
-19 -9 -8 -12 -12 -6 -9 7 3 12 -4 12 -19 0 -16 -5 -22 -12 -18 -6 4 -5 -1 3
-11 13 -15 13 -19 0 -27 -11 -7 -11 -9 0 -9 8 0 11 -7 8 -20 -3 -10 2 -27 10
-37 8 -10 12 -13 9 -7 -3 7 12 10 44 10 28 -1 50 -5 50 -11 0 -5 5 -3 11 5 8
11 12 12 16 3 3 -10 9 -9 21 3 15 15 16 15 23 -2 4 -11 8 -13 8 -6 1 6 6 12
12 12 5 0 8 -4 5 -8 -3 -5 1 -9 9 -9 8 0 12 3 10 7 -2 3 12 7 31 7 21 1 32 -3
27 -10 -4 -6 -1 -7 8 -1 20 12 89 13 89 1 0 -6 3 -7 6 -4 4 3 15 2 26 -4 13
-7 17 -16 12 -31 -4 -14 -2 -18 5 -14 6 4 11 0 11 -8 0 -9 -4 -16 -10 -16 -5
0 -10 -5 -10 -11 0 -5 5 -7 10 -4 14 9 13 -8 -2 -23 -8 -8 -8 -15 2 -27 8 -10
9 -15 1 -15 -6 0 -11 -5 -11 -11 0 -5 5 -7 10 -4 6 3 10 -3 10 -15 0 -12 -4
-18 -10 -15 -5 3 -10 2 -10 -4 0 -5 6 -12 13 -15 10 -5 10 -7 0 -12 -7 -3 -13
-10 -13 -15 0 -6 5 -7 10 -4 6 3 10 -3 10 -15 0 -14 -4 -19 -12 -14 -9 5 -8 2
1 -9 8 -10 11 -21 7 -24 -4 -4 -11 -1 -17 7 -7 11 -8 8 -3 -11 3 -17 1 -30 -7
-34 -8 -6 -10 -4 -5 6 4 8 1 6 -7 -3 -13 -16 -15 -16 -32 0 -10 9 -15 12 -12
7 3 -6 2 -17 -4 -25 -6 -11 -9 -12 -9 -2 0 8 -5 10 -12 5 -18 -11 -128 -11
-121 0 3 5 -4 4 -15 -2 -11 -6 -23 -11 -27 -11 -3 0 -3 5 1 11 5 8 1 8 -14 0
-11 -6 -23 -11 -27 -11 -3 0 -3 5 1 11 4 8 0 8 -15 0 -11 -7 -21 -8 -21 -3 0
5 -11 8 -25 7 -15 -2 -29 3 -35 13 -8 14 -9 14 -10 2 0 -8 -8 -2 -19 15 -14
23 -16 35 -8 50 6 11 10 22 9 25 0 3 14 14 31 25 17 11 28 15 24 9 -3 -6 0
-11 8 -11 8 0 12 4 9 9 -10 16 19 8 32 -9 13 -17 14 -17 8 0 -7 20 6 23 24 5
9 -9 15 -9 24 0 7 7 19 12 28 12 13 0 13 -1 0 -10 -8 -5 -10 -10 -4 -10 5 0
15 5 22 12 9 9 12 9 12 -3 0 -12 2 -12 10 1 6 10 10 11 10 3 0 -7 5 -13 11
-13 5 0 8 4 5 9 -3 5 10 9 31 9 24 0 32 -3 22 -9 -23 -14 -4 -10 29 7 18 8 32
18 32 20 0 3 -4 3 -9 0 -5 -3 -9 10 -8 28 0 19 4 33 7 31 4 -2 7 2 7 10 0 8
-4 12 -9 9 -13 -8 -10 10 5 25 10 11 9 12 -2 6 -11 -6 -13 -2 -9 19 4 19 2 24
-7 16 -8 -6 -16 -5 -25 3 -10 9 -11 9 -6 0 5 -8 1 -13 -9 -13 -10 0 -13 5 -9
13 6 9 5 9 -7 0 -12 -10 -18 -10 -29 0 -10 9 -11 9 -6 -1 6 -10 -1 -12 -33 -8
-27 3 -41 0 -41 -7 0 -8 -3 -9 -8 -1 -4 5 -26 9 -50 9 -37 -2 -41 0 -30 14 10
13 8 12 -8 -1 -16 -14 -23 -15 -33 -5 -7 6 -12 8 -11 2 5 -22 -1 -27 -17 -14
-14 12 -15 12 -9 0 7 -10 3 -12 -14 -6 -16 5 -20 4 -15 -4 4 -8 -2 -10 -19 -7
-18 3 -24 1 -20 -6 5 -7 1 -9 -9 -5 -9 3 -16 2 -14 -2 1 -5 -12 -22 -29 -38
-16 -16 -28 -35 -26 -41 2 -7 -2 -10 -12 -6 -9 3 -16 1 -16 -5 0 -6 4 -11 9
-11 5 0 7 -9 4 -20 -3 -11 -10 -20 -15 -20 -5 0 -6 5 -2 12 4 7 3 8 -5 4 -7
-5 -9 -12 -3 -19 13 -16 11 -47 -2 -47 -6 0 -4 -5 4 -11 11 -8 12 -12 3 -16
-7 -2 -13 -9 -13 -14 0 -6 5 -7 12 -3 8 5 9 2 5 -9 -4 -10 -2 -17 5 -17 7 0 6
-6 -2 -16 -8 -8 -9 -14 -4 -13 21 4 26 -2 14 -17 -11 -12 -11 -15 1 -12 8 2
13 -4 13 -15 -1 -10 0 -16 3 -13 4 3 13 -3 22 -13 20 -22 107 -62 117 -53 4 4
4 1 -1 -7 -6 -10 -2 -11 16 -6 22 7 23 7 9 -11 -14 -18 -14 -18 6 -1 23 19 39
23 29 7 -3 -5 -2 -10 4 -10 5 0 12 6 15 13 5 9 7 9 12 -1 4 -10 9 -10 20 -2
15 14 37 4 28 -12 -4 -7 -2 -8 5 -4 6 4 8 13 4 19 -4 7 6 3 22 -7 20 -13 26
-14 18 -4 -11 13 -4 14 55 14 37 -1 70 -5 74 -11 5 -6 8 -5 8 3 0 6 7 12 15
12 8 0 15 -4 15 -10 0 -5 5 -10 11 -10 5 0 7 4 4 10 -3 5 4 10 17 10 13 0 33
1 46 1 12 0 20 4 17 10 -4 5 3 10 14 10 34 2 39 4 48 13 5 5 2 6 -7 2 -8 -5 0
5 17 22 18 16 30 32 26 36 -3 3 1 14 10 24 10 10 14 22 10 27 -5 4 1 5 12 1
16 -6 18 -5 8 5 -7 7 -13 17 -13 22 0 4 6 5 13 1 8 -6 8 -3 -1 9 -15 17 -7 61
9 51 13 -7 7 19 -6 29 -6 4 -4 11 5 17 8 5 10 10 5 10 -6 0 -11 9 -11 20 0 11
5 20 11 20 5 0 3 5 -5 10 -13 9 -13 11 0 20 8 5 10 10 4 10 -5 0 -10 17 -10
38 0 21 -4 44 -9 51 -6 10 -4 12 6 6 12 -8 12 -6 0 8 -11 14 -11 20 0 34 10
11 10 14 2 9 -9 -5 -13 -1 -13 11 0 11 -5 24 -12 31 -7 7 -8 12 -3 12 5 0 0 7
-11 16 -10 8 -12 13 -4 9 10 -4 9 -2 -2 8 -10 8 -15 17 -11 20 3 4 -3 7 -15 7
-13 0 -22 6 -22 15 0 8 -3 14 -7 14 -30 -5 -53 3 -53 19 0 13 -2 14 -9 4 -7
-11 -11 -11 -22 0 -9 9 -33 14 -66 13 -34 -1 -50 2 -46 9 4 6 0 5 -9 -2 -11
-9 -18 -10 -23 -2 -3 5 -12 10 -18 10 -7 0 -6 -4 3 -10 11 -7 5 -9 -22 -7 -21
1 -38 7 -38 12 0 6 -5 3 -10 -5 -9 -13 -11 -13 -20 0 -7 11 -10 11 -10 2 0
-10 -5 -10 -21 -1 -15 8 -19 8 -15 0 4 -6 0 -11 -9 -11 -9 0 -13 5 -10 10 3 6
4 10 1 10 -3 0 -7 -4 -10 -8z"/>
<path d="M10312 4494 c-13 -9 -30 -13 -38 -10 -10 4 -13 2 -8 -6 5 -7 0 -9
-14 -6 -13 4 -23 0 -26 -9 -4 -8 -13 -13 -21 -9 -8 3 -15 0 -15 -7 0 -7 -12
-23 -25 -36 -21 -19 -24 -20 -19 -5 4 11 4 16 0 13 -4 -4 -9 -19 -12 -34 -3
-16 -9 -36 -14 -45 -5 -10 -6 -20 -3 -24 3 -3 2 -6 -4 -6 -5 0 -9 -23 -8 -52
1 -29 -2 -59 -8 -65 -6 -9 -6 -13 2 -13 15 0 14 -27 -1 -33 -10 -4 -10 -6 0
-6 6 -1 12 -8 12 -17 0 -8 -4 -12 -10 -9 -5 3 -10 1 -10 -4 0 -6 5 -11 12 -11
9 0 9 -3 0 -12 -8 -8 -9 -15 -1 -25 9 -9 8 -17 -1 -28 -9 -10 -9 -15 -1 -15
15 0 14 -27 -1 -33 -10 -4 -10 -6 0 -6 6 -1 12 -8 12 -16 0 -8 -6 -15 -12 -15
-8 0 -9 -3 -3 -8 12 -8 13 -52 2 -69 -5 -8 -4 -13 3 -13 7 0 9 -12 6 -30 -3
-22 0 -30 10 -30 9 0 13 -3 11 -8 -3 -4 8 -7 23 -7 16 -1 26 3 24 7 -3 4 -1 8
5 8 5 0 12 -4 15 -9 4 -5 24 -3 46 7 23 8 36 18 31 21 -10 7 -9 107 2 118 4 3
7 11 7 17 0 6 -5 4 -10 -4 -8 -13 -10 -13 -10 2 0 9 5 20 10 23 7 4 7 11 2 18
-10 14 -10 93 1 103 4 4 7 12 7 18 0 6 -5 4 -10 -4 -17 -26 -11 8 6 38 13 23
14 24 1 8 -15 -17 -16 -13 -13 45 3 73 19 105 56 115 41 11 150 12 143 1 -4
-6 -1 -7 7 -2 8 5 29 10 47 11 30 2 32 0 21 -14 -11 -15 -11 -15 7 0 15 13 24
14 39 6 14 -8 17 -7 12 1 -4 6 0 11 9 11 10 0 13 -5 9 -12 -6 -10 -5 -10 7 -1
12 10 18 10 29 0 10 -10 11 -9 5 1 -6 11 0 13 29 9 27 -4 36 -1 36 10 0 9 5
11 13 7 8 -5 8 -2 -2 9 -11 14 -11 17 0 17 11 0 11 2 -1 10 -13 9 -13 11 0 20
10 6 11 10 3 10 -7 0 -13 8 -13 18 0 15 2 15 11 2 9 -12 9 -11 4 5 -4 11 -8
26 -8 32 0 7 -9 21 -20 30 -11 10 -18 13 -14 7 4 -7 -8 -10 -33 -10 -24 0 -36
4 -32 11 3 5 -1 4 -10 -3 -11 -9 -18 -10 -23 -2 -3 5 -12 10 -18 10 -7 0 -6
-4 3 -10 10 -6 6 -9 -18 -8 -20 1 -29 5 -25 12 4 6 -1 4 -12 -4 -10 -8 -21
-13 -24 -12 -32 19 -43 23 -37 13 9 -14 -96 -10 -106 4 -5 6 -8 5 -8 -2 0 -7
-5 -13 -11 -13 -5 0 -7 5 -4 10 9 14 3 13 -23 -6z"/>
<path d="M2722 4403 l3 -88 164 -3 c136 -2 168 -5 183 -19 16 -15 18 -38 18
-260 l0 -243 90 0 90 0 0 254 c0 277 -6 314 -58 370 -15 16 -49 39 -77 52 -47
22 -61 24 -233 24 l-183 0 3 -87z"/>
<path d="M3555 4483 c-43 -9 -100 -59 -128 -113 l-28 -54 3 -192 c3 -189 3
-191 31 -232 15 -23 46 -54 69 -69 41 -28 43 -28 238 -31 l197 -3 5 62 c8 117
21 109 -168 109 -215 0 -204 -9 -204 180 0 190 -12 180 213 180 94 0 177 -4
183 -8 13 -9 34 -46 34 -62 0 -6 -11 -22 -25 -35 -24 -24 -28 -25 -185 -25
l-160 0 0 -85 0 -85 166 0 c195 0 239 9 298 61 129 114 88 338 -72 395 -26 9
-95 13 -242 12 -113 0 -214 -3 -225 -5z"/>
<path d="M4385 4466 c-59 -27 -77 -46 -104 -106 -18 -40 -21 -66 -21 -224 0
-203 9 -239 76 -295 57 -46 90 -51 368 -51 l256 0 0 78 c0 47 -5 83 -12 90 -9
9 -78 12 -248 12 -170 0 -239 3 -248 12 -18 18 -17 302 1 317 9 7 98 12 258
13 l244 3 0 85 0 85 -260 2 c-255 3 -261 3 -310 -21z"/>
<path d="M5475 4369 c-156 -126 -191 -167 -179 -213 5 -23 160 -182 310 -319
l51 -47 129 0 129 1 -195 189 c-171 165 -193 191 -180 203 8 8 95 78 193 157
97 78 177 144 177 146 0 2 -64 4 -142 4 l-143 -1 -150 -120z"/>
<path d="M7330 4242 c0 -296 6 -329 75 -390 62 -55 96 -62 299 -62 l176 0 1
50 c1 28 2 57 2 65 0 59 11 55 -162 55 -224 0 -205 -25 -209 284 l-3 246 -89
0 -90 0 0 -248z"/>
<path d="M7930 4091 c0 -358 -2 -400 -17 -412 -12 -10 -59 -15 -180 -17 l-163
-3 0 -85 0 -84 73 -1 c270 -5 352 8 410 69 61 64 62 69 65 520 l3 412 -95 0
-96 0 0 -399z"/>
<path d="M9770 4289 c0 -5 5 -7 10 -4 6 3 10 8 10 11 0 2 -4 4 -10 4 -5 0 -10
-5 -10 -11z"/>
<path d="M9300 3816 c0 -2 7 -7 16 -10 8 -3 12 -2 9 4 -6 10 -25 14 -25 6z"/>
</g>
</svg>
